<svg width="3250" height="963" viewBox="0 0 3250 963" fill="none" xmlns="http://www.w3.org/2000/svg">
<path d="M146 719C114 719 87 713 65 701C43 688.333 26.6667 672.333 16 653C5.33333 633 -1.51992e-06 612.333 -1.51992e-06 591C-1.51992e-06 569 5.33333 550 16 534C26 517.333 38.3333 505.333 53 498C79 451.333 101.667 404.333 121 357C140.333 309 158.667 257.333 176 202L324 182C327.333 267.333 333 359.667 341 459C344.333 499 346 528 346 546C346 561.333 344.667 574 342 584C373.333 566 397.333 549.333 414 534H456C413.333 583.333 362.333 625 303 659C283.667 679.667 259.667 695 231 705C203 714.333 174.667 719 146 719ZM114 640C138.667 640 159.333 632.667 176 618C192.667 603.333 201 579.667 201 547C201 527 199 499 195 463C188.333 387 184 336 182 310C166 362.667 139 425.667 101 499C116.333 507 124 518.667 124 534C124 546.667 119.667 558 111 568C103 578 92.6667 583 80 583C66 583 57 578.667 53 570C53 594 57.6667 611.667 67 623C77 634.333 92.6667 640 114 640ZM774.836 719C734.169 719 704.169 708.333 684.836 687C666.169 665 656.836 638 656.836 606C656.836 592 658.503 576.333 661.836 559C665.169 541 668.503 523.667 671.836 507C675.836 490.333 678.503 479.667 679.836 475C685.169 451.667 690.169 428.667 694.836 406C699.503 383.333 701.836 365 701.836 351C701.836 317 689.836 300 665.836 300C648.503 300 633.169 308.667 619.836 326C606.503 342.667 595.836 364.667 587.836 392L519.836 713H375.836L520.836 33L668.836 13L614.836 265C648.169 227.667 687.169 209 731.836 209C765.836 209 792.836 218.333 812.836 237C832.836 255.667 842.836 284 842.836 322C842.836 341.333 840.503 363 835.836 387C831.169 410.333 824.503 439 815.836 473C810.503 493.667 805.503 514 800.836 534C796.836 553.333 794.836 568.667 794.836 580C794.836 593.333 797.836 603.667 803.836 611C809.836 618.333 820.169 622 834.836 622C854.836 622 870.836 615 882.836 601C894.836 586.333 906.836 564 918.836 534H960.836C936.169 607.333 907.503 656.667 874.836 682C842.836 706.667 809.503 719 774.836 719ZM1085.72 159C1063.72 159 1045.05 151.333 1029.72 136C1014.39 120.667 1006.72 102 1006.72 80C1006.72 58 1014.39 39.3333 1029.72 24C1045.05 7.99996 1063.72 -5.91278e-05 1085.72 -5.91278e-05C1107.72 -5.91278e-05 1126.39 7.99996 1141.72 24C1157.72 39.3333 1165.72 58 1165.72 80C1165.72 102 1157.72 120.667 1141.72 136C1126.39 151.333 1107.72 159 1085.72 159ZM1017.72 719C985.719 719 959.719 709 939.719 689C920.385 669 910.719 639 910.719 599C910.719 582.333 913.385 560.667 918.719 534L986.719 213H1130.72L1058.72 553C1056.05 563 1054.72 573.667 1054.72 585C1054.72 598.333 1057.72 608 1063.72 614C1070.39 619.333 1081.05 622 1095.72 622C1115.05 622 1133.05 614 1149.72 598C1166.39 581.333 1178.39 560 1185.72 534H1227.72C1203.05 606 1171.39 655 1132.72 681C1094.05 706.333 1055.72 719 1017.72 719ZM1261.32 176H1405.32L1389.32 251C1422.65 222.333 1461.65 208 1506.32 208C1543.65 208 1573.32 220.333 1595.32 245C1617.32 269.667 1628.32 310 1628.32 366C1628.32 418.667 1620.65 472 1605.32 526C1589.99 579.333 1563.99 625 1527.32 663C1490.65 700.333 1442.32 719 1382.32 719C1339.65 719 1311.32 707 1297.32 683L1245.32 927L1094.32 963L1261.32 176ZM1351.32 632C1383.32 632 1409.65 617 1430.32 587C1451.65 557 1466.99 521.333 1476.32 480C1486.32 438 1491.32 399 1491.32 363C1491.32 307.667 1474.65 280 1441.32 280C1429.32 280 1416.99 284.333 1404.32 293C1392.32 301.667 1381.65 313.667 1372.32 329L1313.32 609C1318.65 624.333 1331.32 632 1351.32 632ZM1767.09 719C1735.09 719 1708.09 713 1686.09 701C1664.09 688.333 1647.76 672.333 1637.09 653C1626.43 633 1621.09 612.333 1621.09 591C1621.09 569 1626.43 550 1637.09 534C1647.09 517.333 1659.43 505.333 1674.09 498C1700.09 451.333 1722.76 404.333 1742.09 357C1761.43 309 1779.76 257.333 1797.09 202L1945.09 182C1948.43 267.333 1954.09 359.667 1962.09 459C1965.43 499 1967.09 528 1967.09 546C1967.09 561.333 1965.76 574 1963.09 584C1994.43 566 2018.43 549.333 2035.09 534H2077.09C2034.43 583.333 1983.43 625 1924.09 659C1904.76 679.667 1880.76 695 1852.09 705C1824.09 714.333 1795.76 719 1767.09 719ZM1735.09 640C1759.76 640 1780.43 632.667 1797.09 618C1813.76 603.333 1822.09 579.667 1822.09 547C1822.09 527 1820.09 499 1816.09 463C1809.43 387 1805.09 336 1803.09 310C1787.09 362.667 1760.09 425.667 1722.09 499C1737.43 507 1745.09 518.667 1745.09 534C1745.09 546.667 1740.76 558 1732.09 568C1724.09 578 1713.76 583 1701.09 583C1687.09 583 1678.09 578.667 1674.09 570C1674.09 594 1678.76 611.667 1688.09 623C1698.09 634.333 1713.76 640 1735.09 640ZM2395.93 719C2355.26 719 2325.26 708.333 2305.93 687C2287.26 665 2277.93 638 2277.93 606C2277.93 592 2279.6 576.333 2282.93 559C2286.26 541 2289.6 523.667 2292.93 507C2296.93 490.333 2299.6 479.667 2300.93 475C2306.26 451.667 2311.26 428.667 2315.93 406C2320.6 383.333 2322.93 365 2322.93 351C2322.93 317 2310.93 300 2286.93 300C2269.6 300 2254.26 308.667 2240.93 326C2227.6 342.667 2216.93 364.667 2208.93 392L2140.93 713H1996.93L2141.93 33L2289.93 13L2235.93 265C2269.26 227.667 2308.26 209 2352.93 209C2386.93 209 2413.93 218.333 2433.93 237C2453.93 255.667 2463.93 284 2463.93 322C2463.93 341.333 2461.6 363 2456.93 387C2452.26 410.333 2445.6 439 2436.93 473C2431.6 493.667 2426.6 514 2421.93 534C2417.93 553.333 2415.93 568.667 2415.93 580C2415.93 593.333 2418.93 603.667 2424.93 611C2430.93 618.333 2441.26 622 2455.93 622C2475.93 622 2491.93 615 2503.93 601C2515.93 586.333 2527.93 564 2539.93 534H2581.93C2557.26 607.333 2528.6 656.667 2495.93 682C2463.93 706.667 2430.6 719 2395.93 719ZM2706.81 159C2684.81 159 2666.15 151.333 2650.81 136C2635.48 120.667 2627.81 102 2627.81 80C2627.81 58 2635.48 39.3333 2650.81 24C2666.15 7.99996 2684.81 -5.91278e-05 2706.81 -5.91278e-05C2728.81 -5.91278e-05 2747.48 7.99996 2762.81 24C2778.81 39.3333 2786.81 58 2786.81 80C2786.81 102 2778.81 120.667 2762.81 136C2747.48 151.333 2728.81 159 2706.81 159ZM2638.81 719C2606.81 719 2580.81 709 2560.81 689C2541.48 669 2531.81 639 2531.81 599C2531.81 582.333 2534.48 560.667 2539.81 534L2607.81 213H2751.81L2679.81 553C2677.15 563 2675.81 573.667 2675.81 585C2675.81 598.333 2678.81 608 2684.81 614C2691.48 619.333 2702.15 622 2716.81 622C2736.15 622 2754.15 614 2770.81 598C2787.48 581.333 2799.48 560 2806.81 534H2848.81C2824.15 606 2792.48 655 2753.81 681C2715.15 706.333 2676.81 719 2638.81 719ZM2882.41 176H3026.41L3010.41 251C3043.75 222.333 3082.75 208 3127.41 208C3164.75 208 3194.41 220.333 3216.41 245C3238.41 269.667 3249.41 310 3249.41 366C3249.41 418.667 3241.75 472 3226.41 526C3211.08 579.333 3185.08 625 3148.41 663C3111.75 700.333 3063.41 719 3003.41 719C2960.75 719 2932.41 707 2918.41 683L2866.41 927L2715.41 963L2882.41 176ZM2972.41 632C3004.41 632 3030.75 617 3051.41 587C3072.75 557 3088.08 521.333 3097.41 480C3107.41 438 3112.41 399 3112.41 363C3112.41 307.667 3095.75 280 3062.41 280C3050.41 280 3038.08 284.333 3025.41 293C3013.41 301.667 3002.75 313.667 2993.41 329L2934.41 609C2939.75 624.333 2952.41 632 2972.41 632Z" fill="#480202"/>
</svg>
